<?xml version="1.0" encoding="UTF-8" standalone="no"?>
<!DOCTYPE svg PUBLIC "-//W3C//DTD SVG 1.1//EN"
 "http://www.w3.org/Graphics/SVG/1.1/DTD/svg11.dtd">
<!-- Generated by graphviz version 12.2.1 (20241206.2353)
 -->
<!-- Title: G Pages: 1 -->
<svg width="966pt" height="399pt"
 viewBox="0.00 0.00 965.88 399.18" xmlns="http://www.w3.org/2000/svg" xmlns:xlink="http://www.w3.org/1999/xlink">
<g id="graph0" class="graph" transform="scale(1 1) rotate(0) translate(4 395.18)">
<title>G</title><style>.edge>path:hover{stroke-width:8}</style>
<polygon fill="white" stroke="none" points="-4,4 -4,-395.18 961.88,-395.18 961.88,4 -4,4"/>
<!-- dotenv -->
<g id="node1" class="node">
<title>dotenv</title><style>.edge>path:hover{stroke-width:8}</style>
<ellipse fill="#c24747" stroke="black" cx="27" cy="-373.18" rx="27" ry="18"/>
<text text-anchor="middle" x="27" y="-369.3" font-family="Helvetica,sans-Serif" font-size="10.00" fill="#ffffff">dotenv</text>
</g>
<!-- src_agent -->
<g id="node4" class="node">
<title>src_agent</title><style>.edge>path:hover{stroke-width:8}</style>
<ellipse fill="#2e2e6b" stroke="black" cx="401" cy="-127" rx="33.43" ry="18"/>
<text text-anchor="middle" x="401" y="-123.12" font-family="Helvetica,sans-Serif" font-size="10.00" fill="#ffffff">src.agent</text>
</g>
<!-- dotenv&#45;&gt;src_agent -->
<g id="edge1" class="edge">
<title>dotenv&#45;&gt;src_agent</title><style>.edge>path:hover{stroke-width:8}</style>
<path fill="none" stroke="black" d="M27,-296.61C34.93,-245.15 8.91,-217.55 46,-181 88.97,-138.65 270.05,-130.04 355.72,-128.36"/>
<polygon fill="#c24747" stroke="black" points="355.7,-131.87 365.64,-128.2 355.58,-124.87 355.7,-131.87"/>
<path fill="none" stroke="black" d="M25.3,-354.79C24.24,-339.78 23.64,-317.6 27,-298.61"/>
</g>
<!-- src_llm -->
<g id="node7" class="node">
<title>src_llm</title><style>.edge>path:hover{stroke-width:8}</style>
<ellipse fill="#4646a4" stroke="black" cx="82" cy="-210.52" rx="27" ry="18"/>
<text text-anchor="middle" x="82" y="-206.65" font-family="Helvetica,sans-Serif" font-size="10.00" fill="#ffffff">src.llm</text>
</g>
<!-- dotenv&#45;&gt;src_llm -->
<g id="edge2" class="edge">
<title>dotenv&#45;&gt;src_llm</title><style>.edge>path:hover{stroke-width:8}</style>
<path fill="none" stroke="black" d="M27,-296.61C30.65,-272.92 46,-250.35 59.55,-234.41"/>
<polygon fill="#c24747" stroke="black" points="62.16,-236.75 66.22,-226.96 56.94,-232.08 62.16,-236.75"/>
</g>
<!-- main_py -->
<g id="node2" class="node">
<title>main_py</title><style>.edge>path:hover{stroke-width:8}</style>
<ellipse fill="#4e924e" stroke="black" cx="839" cy="-18" rx="29.88" ry="18"/>
<text text-anchor="middle" x="839" y="-14.12" font-family="Helvetica,sans-Serif" font-size="10.00" fill="#ffffff">main.py</text>
</g>
<!-- src -->
<g id="node3" class="node">
<title>src</title><style>.edge>path:hover{stroke-width:8}</style>
<ellipse fill="#1616f3" stroke="black" cx="764" cy="-127" rx="27" ry="18"/>
<text text-anchor="middle" x="764" y="-123.12" font-family="Helvetica,sans-Serif" font-size="10.00" fill="#ffffff">src</text>
</g>
<!-- src&#45;&gt;main_py -->
<g id="edge3" class="edge">
<title>src&#45;&gt;main_py</title><style>.edge>path:hover{stroke-width:8}</style>
<path fill="none" stroke="black" d="M786.07,-116.32C803.32,-107.56 826.43,-92.97 839,-73"/>
</g>
<!-- src_agent&#45;&gt;main_py -->
<g id="edge4" class="edge">
<title>src_agent&#45;&gt;main_py</title><style>.edge>path:hover{stroke-width:8}</style>
<path fill="none" stroke="black" d="M839,-72C843.53,-64.8 844.79,-55.89 844.55,-47.45"/>
<polygon fill="#2e2e6b" stroke="black" points="848.04,-47.14 843.55,-37.54 841.07,-47.85 848.04,-47.14"/>
<path fill="none" stroke="black" d="M434.5,-124.85C533.21,-121.06 817.44,-107.23 839,-73"/>
</g>
<!-- src_context_tree -->
<g id="node5" class="node">
<title>src_context_tree</title><style>.edge>path:hover{stroke-width:8}</style>
<ellipse fill="#5353b6" stroke="black" cx="176" cy="-210.52" rx="49.5" ry="21.57"/>
<text text-anchor="middle" x="176" y="-212.27" font-family="Helvetica,sans-Serif" font-size="10.00" fill="#ffffff">src.</text>
<text text-anchor="middle" x="176" y="-201.02" font-family="Helvetica,sans-Serif" font-size="10.00" fill="#ffffff">context_tree</text>
</g>
<!-- src_context_tree&#45;&gt;src_agent -->
<g id="edge5" class="edge">
<title>src_context_tree&#45;&gt;src_agent</title><style>.edge>path:hover{stroke-width:8}</style>
<path fill="none" stroke="black" d="M208.74,-193.89C218.39,-189.5 229.04,-184.87 239,-181 280.14,-165.01 328.33,-149.67 361.39,-139.64"/>
<polygon fill="#5353b6" stroke="black" points="361.97,-143.12 370.54,-136.88 359.95,-136.41 361.97,-143.12"/>
</g>
<!-- src_file_system -->
<g id="node6" class="node">
<title>src_file_system</title><style>.edge>path:hover{stroke-width:8}</style>
<ellipse fill="#4646a4" stroke="black" cx="505" cy="-210.52" rx="46.85" ry="21.57"/>
<text text-anchor="middle" x="505" y="-212.27" font-family="Helvetica,sans-Serif" font-size="10.00" fill="#ffffff">src.</text>
<text text-anchor="middle" x="505" y="-201.02" font-family="Helvetica,sans-Serif" font-size="10.00" fill="#ffffff">file_system</text>
</g>
<!-- src_file_system&#45;&gt;src_agent -->
<g id="edge6" class="edge">
<title>src_file_system&#45;&gt;src_agent</title><style>.edge>path:hover{stroke-width:8}</style>
<path fill="none" stroke="black" d="M481.92,-191.43C465.96,-178.92 444.68,-162.24 427.95,-149.12"/>
<polygon fill="#4646a4" stroke="black" points="430.4,-146.6 420.37,-143.19 426.08,-152.11 430.4,-146.6"/>
</g>
<!-- src_llm&#45;&gt;src_agent -->
<g id="edge7" class="edge">
<title>src_llm&#45;&gt;src_agent</title><style>.edge>path:hover{stroke-width:8}</style>
<path fill="none" stroke="black" d="M96.67,-195.23C102.81,-190 110.31,-184.5 118,-181 196.94,-145.03 298.91,-133.47 356.4,-129.76"/>
<polygon fill="#4646a4" stroke="black" points="356.34,-133.27 366.12,-129.19 355.93,-126.28 356.34,-133.27"/>
</g>
<!-- src_logging_config -->
<g id="node8" class="node">
<title>src_logging_config</title><style>.edge>path:hover{stroke-width:8}</style>
<ellipse fill="#2222e7" stroke="black" cx="312" cy="-297.61" rx="55.33" ry="21.57"/>
<text text-anchor="middle" x="312" y="-299.36" font-family="Helvetica,sans-Serif" font-size="10.00" fill="#ffffff">src.</text>
<text text-anchor="middle" x="312" y="-288.11" font-family="Helvetica,sans-Serif" font-size="10.00" fill="#ffffff">logging_config</text>
</g>
<!-- src_logging_config&#45;&gt;src_agent -->
<g id="edge8" class="edge">
<title>src_logging_config&#45;&gt;src_agent</title><style>.edge>path:hover{stroke-width:8}</style>
<path fill="none" stroke="black" d="M293.41,-276.81C285.13,-266.64 276.3,-253.57 272,-240.04 264.05,-215.03 257.39,-202.8 272,-181 290.8,-152.95 327.41,-139.73 356.84,-133.51"/>
<polygon fill="#2222e7" stroke="black" points="357.46,-136.95 366.64,-131.66 356.16,-130.08 357.46,-136.95"/>
</g>
<!-- src_logging_config&#45;&gt;src_file_system -->
<g id="edge9" class="edge">
<title>src_logging_config&#45;&gt;src_file_system</title><style>.edge>path:hover{stroke-width:8}</style>
<path fill="none" stroke="black" d="M350.77,-281.79C378.65,-270.88 416.99,-255.33 450,-240.04 454.93,-237.76 460.05,-235.27 465.1,-232.74"/>
<polygon fill="#2222e7" stroke="black" points="466.6,-235.9 473.92,-228.24 463.42,-229.67 466.6,-235.9"/>
</g>
<!-- src_logging_config&#45;&gt;src_llm -->
<g id="edge10" class="edge">
<title>src_logging_config&#45;&gt;src_llm</title><style>.edge>path:hover{stroke-width:8}</style>
<path fill="none" stroke="black" d="M262.59,-287.71C222.15,-279.16 164.29,-263.96 118,-240.04 113.97,-237.96 109.96,-235.4 106.15,-232.67"/>
<polygon fill="#2222e7" stroke="black" points="108.45,-230.02 98.41,-226.65 104.15,-235.55 108.45,-230.02"/>
</g>
<!-- src_shell -->
<g id="node12" class="node">
<title>src_shell</title><style>.edge>path:hover{stroke-width:8}</style>
<ellipse fill="#4949ac" stroke="black" cx="312" cy="-210.52" rx="31.21" ry="18"/>
<text text-anchor="middle" x="312" y="-206.65" font-family="Helvetica,sans-Serif" font-size="10.00" fill="#ffffff">src.shell</text>
</g>
<!-- src_logging_config&#45;&gt;src_shell -->
<g id="edge11" class="edge">
<title>src_logging_config&#45;&gt;src_shell</title><style>.edge>path:hover{stroke-width:8}</style>
<path fill="none" stroke="black" d="M312,-275.58C312,-264.91 312,-251.8 312,-240.22"/>
<polygon fill="#2222e7" stroke="black" points="315.5,-240.39 312,-230.39 308.5,-240.39 315.5,-240.39"/>
</g>
<!-- src_terminal -->
<g id="node13" class="node">
<title>src_terminal</title><style>.edge>path:hover{stroke-width:8}</style>
<ellipse fill="#4949ac" stroke="black" cx="401" cy="-210.52" rx="39.64" ry="18"/>
<text text-anchor="middle" x="401" y="-206.65" font-family="Helvetica,sans-Serif" font-size="10.00" fill="#ffffff">src.terminal</text>
</g>
<!-- src_logging_config&#45;&gt;src_terminal -->
<g id="edge12" class="edge">
<title>src_logging_config&#45;&gt;src_terminal</title><style>.edge>path:hover{stroke-width:8}</style>
<path fill="none" stroke="black" d="M332.2,-277.3C345.28,-264.8 362.4,-248.43 376.29,-235.14"/>
<polygon fill="#2222e7" stroke="black" points="378.56,-237.82 383.36,-228.38 373.72,-232.76 378.56,-237.82"/>
</g>
<!-- src_memory -->
<g id="node9" class="node">
<title>src_memory</title><style>.edge>path:hover{stroke-width:8}</style>
<ellipse fill="#5353b6" stroke="black" cx="648" cy="-210.52" rx="40.09" ry="18"/>
<text text-anchor="middle" x="648" y="-206.65" font-family="Helvetica,sans-Serif" font-size="10.00" fill="#ffffff">src.memory</text>
</g>
<!-- src_memory&#45;&gt;src_agent -->
<g id="edge13" class="edge">
<title>src_memory&#45;&gt;src_agent</title><style>.edge>path:hover{stroke-width:8}</style>
<path fill="none" stroke="black" d="M624.34,-195.59C615.09,-190.53 604.25,-185.06 594,-181 543.57,-161.03 482.89,-145.71 443.2,-136.79"/>
<polygon fill="#5353b6" stroke="black" points="444.09,-133.41 433.57,-134.67 442.58,-140.24 444.09,-133.41"/>
</g>
<!-- src_prompt -->
<g id="node10" class="node">
<title>src_prompt</title><style>.edge>path:hover{stroke-width:8}</style>
<ellipse fill="#5353b6" stroke="black" cx="743" cy="-210.52" rx="36.98" ry="18"/>
<text text-anchor="middle" x="743" y="-206.65" font-family="Helvetica,sans-Serif" font-size="10.00" fill="#ffffff">src.prompt</text>
</g>
<!-- src_prompt&#45;&gt;src_agent -->
<g id="edge14" class="edge">
<title>src_prompt&#45;&gt;src_agent</title><style>.edge>path:hover{stroke-width:8}</style>
<path fill="none" stroke="black" d="M723.26,-195C715.43,-189.86 706.12,-184.5 697,-181 611.77,-148.32 504.89,-135.56 445.69,-130.75"/>
<polygon fill="#5353b6" stroke="black" points="446.25,-127.28 436.01,-130.01 445.71,-134.26 446.25,-127.28"/>
</g>
<!-- src_schema -->
<g id="node11" class="node">
<title>src_schema</title><style>.edge>path:hover{stroke-width:8}</style>
<ellipse fill="#4747c2" stroke="black" cx="542" cy="-297.61" rx="39.64" ry="18"/>
<text text-anchor="middle" x="542" y="-293.74" font-family="Helvetica,sans-Serif" font-size="10.00" fill="#ffffff">src.schema</text>
</g>
<!-- src_schema&#45;&gt;src_agent -->
<g id="edge15" class="edge">
<title>src_schema&#45;&gt;src_agent</title><style>.edge>path:hover{stroke-width:8}</style>
<path fill="none" stroke="black" d="M551.7,-279.94C564.33,-255.78 582.44,-210.68 561,-181 534.92,-144.88 483.27,-132.98 445.69,-129.26"/>
<polygon fill="#4747c2" stroke="black" points="446.28,-125.8 436.03,-128.48 445.71,-132.78 446.28,-125.8"/>
</g>
<!-- src_schema&#45;&gt;src_file_system -->
<g id="edge16" class="edge">
<title>src_schema&#45;&gt;src_file_system</title><style>.edge>path:hover{stroke-width:8}</style>
<path fill="none" stroke="black" d="M534.69,-279.8C530.02,-269.05 523.82,-254.8 518.29,-242.09"/>
<polygon fill="#4747c2" stroke="black" points="521.66,-241.06 514.46,-233.29 515.24,-243.85 521.66,-241.06"/>
</g>
<!-- src_shell&#45;&gt;src_agent -->
<g id="edge17" class="edge">
<title>src_shell&#45;&gt;src_agent</title><style>.edge>path:hover{stroke-width:8}</style>
<path fill="none" stroke="black" d="M327.91,-194.95C341.41,-182.58 361,-164.64 376.5,-150.44"/>
<polygon fill="#4949ac" stroke="black" points="378.5,-153.36 383.51,-144.02 373.77,-148.2 378.5,-153.36"/>
</g>
<!-- src_terminal&#45;&gt;src_agent -->
<g id="edge18" class="edge">
<title>src_terminal&#45;&gt;src_agent</title><style>.edge>path:hover{stroke-width:8}</style>
<path fill="none" stroke="black" d="M401,-192.23C401,-181.86 401,-168.4 401,-156.49"/>
<polygon fill="#4949ac" stroke="black" points="404.5,-156.78 401,-146.78 397.5,-156.78 404.5,-156.78"/>
</g>
<!-- src_utils -->
<g id="node14" class="node">
<title>src_utils</title><style>.edge>path:hover{stroke-width:8}</style>
<ellipse fill="#4c4cb3" stroke="black" cx="839" cy="-127" rx="29.88" ry="18"/>
<text text-anchor="middle" x="839" y="-123.12" font-family="Helvetica,sans-Serif" font-size="10.00" fill="#ffffff">src.utils</text>
</g>
<!-- src_utils&#45;&gt;main_py -->
<g id="edge19" class="edge">
<title>src_utils&#45;&gt;main_py</title><style>.edge>path:hover{stroke-width:8}</style>
<path fill="none" stroke="black" d="M834.6,-108.96C832.75,-97.89 832.33,-83.59 839,-73"/>
</g>
<!-- src_utils_health -->
<g id="node15" class="node">
<title>src_utils_health</title><style>.edge>path:hover{stroke-width:8}</style>
<ellipse fill="#5353b6" stroke="black" cx="928" cy="-210.52" rx="29.88" ry="29.52"/>
<text text-anchor="middle" x="928" y="-217.9" font-family="Helvetica,sans-Serif" font-size="10.00" fill="#ffffff">src.</text>
<text text-anchor="middle" x="928" y="-206.65" font-family="Helvetica,sans-Serif" font-size="10.00" fill="#ffffff">utils.</text>
<text text-anchor="middle" x="928" y="-195.4" font-family="Helvetica,sans-Serif" font-size="10.00" fill="#ffffff">health</text>
</g>
<!-- src_utils_health&#45;&gt;main_py -->
<g id="edge20" class="edge">
<title>src_utils_health&#45;&gt;main_py</title><style>.edge>path:hover{stroke-width:8}</style>
<path fill="none" stroke="black" d="M917.7,-182.4C908.94,-161.26 895.07,-131.77 878,-109 863.85,-90.13 826.43,-92.96 839,-73"/>
</g>
<!-- src_utils_text -->
<g id="node16" class="node">
<title>src_utils_text</title><style>.edge>path:hover{stroke-width:8}</style>
<ellipse fill="#5353b6" stroke="black" cx="839" cy="-210.52" rx="41.42" ry="18"/>
<text text-anchor="middle" x="839" y="-206.65" font-family="Helvetica,sans-Serif" font-size="10.00" fill="#ffffff">src.utils.text</text>
</g>
<!-- src_utils_text&#45;&gt;src_utils -->
<g id="edge21" class="edge">
<title>src_utils_text&#45;&gt;src_utils</title><style>.edge>path:hover{stroke-width:8}</style>
<path fill="none" stroke="black" d="M839,-192.23C839,-181.86 839,-168.4 839,-156.49"/>
<polygon fill="#5353b6" stroke="black" points="842.5,-156.78 839,-146.78 835.5,-156.78 842.5,-156.78"/>
</g>
</g>
</svg>
